<svg width="42" height="46" viewBox="0 0 42 46" xmlns="http://www.w3.org/2000/svg"><title>facebook</title><desc>Created with Sketch.</desc><g fill="none"><path d="M39.08 9.763L23.783 1.017c-1.604-.895-3.536-.895-5.14 0L3.346 9.763c-1.604.895-2.55 2.603-2.55 4.393v17.49c0 1.832.987 3.5 2.55 4.395l15.297 8.746c.78.448 1.686.692 2.55.692.904 0 1.768-.244 2.55-.692l15.296-8.745c1.603-.894 2.55-2.603 2.55-4.393v-17.49c.08-1.79-.906-3.5-2.51-4.394z" id="Shape" fill="#FEF4E6"/><path d="M26.045 19.403H22.92V17.37c0-.773.493-.936.863-.936h2.22v-3.376h-3.042c-3.37 0-4.153 2.522-4.153 4.108v2.237h-1.973v3.458h1.973v9.804h4.113V22.86h2.796l.33-3.457z" id="Shape" fill="#464200"/><path d="M37.847 11.878L22.55 3.132c-.412-.244-.864-.366-1.316-.366v40.27c.452 0 .945-.12 1.316-.365l15.297-8.745c.822-.488 1.316-1.342 1.316-2.278v-17.49c.04-.937-.494-1.79-1.316-2.28z" opacity=".05" fill="#000"/></g></svg>