<?xml version="1.0" encoding="UTF-8" standalone="no"?>
<svg width="42px" height="46px" viewBox="0 0 42 46" version="1.1" xmlns="http://www.w3.org/2000/svg" xmlns:xlink="http://www.w3.org/1999/xlink" xmlns:sketch="http://www.bohemiancoding.com/sketch/ns">
    <!-- Generator: Sketch 3.2.2 (9983) - http://www.bohemiancoding.com/sketch -->
    <title>facebook</title>
    <desc>Created with Sketch.</desc>
    <defs></defs>
    <g id="Page-1" stroke="none" stroke-width="1" fill="none" fill-rule="evenodd" sketch:type="MSPage">
        <g id="Artboard-6" sketch:type="MSArtboardGroup" transform="translate(-610.000000, -435.000000)">
            <g id="facebook" sketch:type="MSLayerGroup" transform="translate(608.000000, 435.000000)">
                <g id="Group" sketch:type="MSShapeGroup">
                    <g id="Shape" fill="#FEF4E6">
                        <path d="M41.0803738,9.76271186 L25.7831776,1.01694915 C24.1794393,0.122033898 22.246729,0.122033898 20.6429907,1.01694915 L5.34579439,9.76271186 C3.74205607,10.6576271 2.79626168,12.3661017 2.79626168,14.1559322 L2.79626168,31.6474576 C2.79626168,33.4779661 3.78317757,35.1457627 5.34579439,36.040678 L20.6429907,44.7864407 C21.4242991,45.2338983 22.328972,45.4779661 23.1925234,45.4779661 C24.0971963,45.4779661 24.9607477,45.2338983 25.7420561,44.7864407 L41.0392523,36.040678 C42.6429907,35.1457627 43.588785,33.4372881 43.588785,31.6474576 L43.588785,14.1559322 C43.671028,12.3661017 42.6841121,10.6576271 41.0803738,9.76271186 L41.0803738,9.76271186 Z"></path>
                    </g>
                    <path d="M28.0448598,19.4033898 L24.9196262,19.4033898 L24.9196262,17.3694915 C24.9196262,16.5966102 25.4130841,16.4338983 25.7831776,16.4338983 L28.0037383,16.4338983 L28.0037383,13.0576271 L24.9607477,13.0576271 C21.588785,13.0576271 20.8074766,15.579661 20.8074766,17.1661017 L20.8074766,19.4033898 L18.8336449,19.4033898 L18.8336449,22.8610169 L20.8074766,22.8610169 L20.8074766,32.6644068 L24.9196262,32.6644068 L24.9196262,22.8610169 L27.7158879,22.8610169 L28.0448598,19.4033898 L28.0448598,19.4033898 Z" id="Shape" fill="#464200"></path>
                    <path d="M39.846729,11.8779661 L24.5495327,3.13220339 C24.1383178,2.88813559 23.6859813,2.76610169 23.2336449,2.76610169 L23.2336449,43.0372881 C23.6859813,43.0372881 24.1794393,42.9152542 24.5495327,42.6711864 L39.846729,33.9254237 C40.6691589,33.4372881 41.1626168,32.5830508 41.1626168,31.6474576 L41.1626168,14.1559322 C41.2037383,13.220339 40.6691589,12.3661017 39.846729,11.8779661 L39.846729,11.8779661 Z" id="Shape" opacity="0.05" fill="#000000"></path>
                </g>
            </g>
        </g>
    </g>
</svg>