<?xml version="1.0" encoding="UTF-8" standalone="no"?>
<svg width="2916px" height="2920px" viewBox="0 0 2916 2920" version="1.1" xmlns="http://www.w3.org/2000/svg" xmlns:xlink="http://www.w3.org/1999/xlink" xmlns:sketch="http://www.bohemiancoding.com/sketch/ns">
    <!-- Generator: Sketch 3.2.2 (9983) - http://www.bohemiancoding.com/sketch -->
    <title>Record</title>
    <desc>Created with Sketch.</desc>
    <defs>
        <path d="M1451,2905.73739 C2252.36517,2905.73739 2902,2255.26592 2902,1452.8687 C2902,650.471472 2252.36517,0 1451,0 C649.634828,0 0,650.471472 0,1452.8687 C0,2255.26592 649.634828,2905.73739 1451,2905.73739 Z M1451.87304,1522.80221 C1490.92875,1522.80221 1522.58965,1491.10053 1522.58965,1451.99453 C1522.58965,1412.88852 1490.92875,1381.18685 1451.87304,1381.18685 C1412.81734,1381.18685 1381.15644,1412.88852 1381.15644,1451.99453 C1381.15644,1491.10053 1412.81734,1522.80221 1451.87304,1522.80221 Z" id="path-1"></path>
        <path d="M1451.84872,2227.24366 C1879.05061,2227.24366 2225.36617,1880.48209 2225.36617,1452.73002 C2225.36617,1024.97795 1879.05061,678.216383 1451.84872,678.216383 C1024.64683,678.216383 678.331269,1024.97795 678.331269,1452.73002 C678.331269,1880.48209 1024.64683,2227.24366 1451.84872,2227.24366 Z M1452.72176,1522.66353 C1491.77747,1522.66353 1523.43837,1490.96185 1523.43837,1451.85585 C1523.43837,1412.74985 1491.77747,1381.04817 1452.72176,1381.04817 C1413.66606,1381.04817 1382.00516,1412.74985 1382.00516,1451.85585 C1382.00516,1490.96185 1413.66606,1522.66353 1452.72176,1522.66353 Z" id="path-2"></path>
        <filter x="-50%" y="-50%" width="200%" height="200%" filterUnits="objectBoundingBox" id="filter-3">
            <feOffset dx="0" dy="1" in="SourceAlpha" result="shadowOffsetInner1"></feOffset>
            <feGaussianBlur stdDeviation="9" in="shadowOffsetInner1" result="shadowBlurInner1"></feGaussianBlur>
            <feComposite in="shadowBlurInner1" in2="SourceAlpha" operator="arithmetic" k2="-1" k3="1" result="shadowInnerInner1"></feComposite>
            <feColorMatrix values="0 0 0 0 0   0 0 0 0 0   0 0 0 0 0  0 0 0 0.35 0" in="shadowInnerInner1" type="matrix" result="shadowMatrixInner1"></feColorMatrix>
            <feMerge>
                <feMergeNode in="SourceGraphic"></feMergeNode>
                <feMergeNode in="shadowMatrixInner1"></feMergeNode>
            </feMerge>
        </filter>
    </defs>
    <g id="Page-1" stroke="none" stroke-width="1" fill="none" fill-rule="evenodd" sketch:type="MSPage">
        <g id="Artboard-4" sketch:type="MSArtboardGroup" transform="translate(-1353.000000, -230.000000)">
            <g id="Record" sketch:type="MSLayerGroup" transform="translate(1360.000000, 237.000000)">
                <g id="Oval-1">
                    <use stroke="#595959" stroke-width="14" fill="#393939" sketch:type="MSShapeGroup" xlink:href="#path-1"></use>
                    <use stroke="none" fill-opacity="0.0383628731" fill="none" xlink:href="#path-1"></use>
                </g>
                <g id="Oval-2" opacity="0.851970616">
                    <use stroke="#282828" stroke-width="5" sketch:type="MSShapeGroup" xlink:href="#path-2"></use>
                    <use stroke="none" fill-rule="evenodd" xlink:href="#path-2"></use>
                    <use stroke="none" xlink:href="#path-2"></use>
                    <use stroke="none" xlink:href="#path-2"></use>
                </g>
                <ellipse id="Oval-4" stroke-opacity="0.130151721" stroke="#000000" stroke-width="4" filter="url(#filter-3)" sketch:type="MSShapeGroup" cx="1450.19453" cy="1452.70737" rx="351.836943" ry="352.290063"></ellipse>
            </g>
        </g>
    </g>
</svg>